PathFileType	4	(x/y/z)	S01_M20_T03.trc
DataRate	CameraRate	NumFrames	NumMarkers	Units	OrigDataRate	OrigDataStartFrame	OrigNumFrames
240	240	6	51	mm	240	62	488
Frame#	Time	Sternum			R.Acromium			L.Acromium			Top.Head			R.ASIS			L.ASIS			R.PSIS			L.PSIS			R.Great.Tro			L.Great.Tro			R.Iliac.Crest			L.Iliac.Crest			V.Sacral			R.Thigh.Upper.Post			R.Thigh.Lower.Ant			R.Thigh.Lower.Post			R.Thigh.Upper.Ant			R.Knee.Lat			R.Knee.Med			R.Shank.Upper.Post			R.Shank.Lower.Ant			R.Shank.Lower.Post			R.Shank.Upper.Ant			R.Ankle.Lat			R.Ankle.Med			R.Heel.Upper			R.Heel.Med			R.Heel.Lat			R.Toe.Lat			R.Toe.Med			R.Toe.Tip			L.Thigh.Upper.Post			L.Thigh.Lower.Ant			L.Thigh.Lower.Post			L.Thigh.Upper.Ant			L.Knee.Lat			L.Knee.Med			L.Shank.Upper.Post			L.Shank.Lower.Ant			L.Shank.Lower.Post			L.Shank.Upper.Ant			L.Ankle.Lat			L.Ankle.Med			L.Heel.Upper			L.Heel.Med			L.Heel.Lat			L.Toe.Lat			L.Toe.Med			L.Toe.Tip			Cervical.Spine			Back			
		X1	Y1	Z1	X2	Y2	Z2	X3	Y3	Z3	X4	Y4	Z4	X5	Y5	Z5	X6	Y6	Z6	X7	Y7	Z7	X8	Y8	Z8	X9	Y9	Z9	X10	Y10	Z10	X11	Y11	Z11	X12	Y12	Z12	X13	Y13	Z13	X14	Y14	Z14	X15	Y15	Z15	X16	Y16	Z16	X17	Y17	Z17	X18	Y18	Z18	X19	Y19	Z19	X20	Y20	Z20	X21	Y21	Z21	X22	Y22	Z22	X23	Y23	Z23	X24	Y24	Z24	X25	Y25	Z25	X26	Y26	Z26	X27	Y27	Z27	X28	Y28	Z28	X29	Y29	Z29	X30	Y30	Z30	X31	Y31	Z31	X32	Y32	Z32	X33	Y33	Z33	X34	Y34	Z34	X35	Y35	Z35	X36	Y36	Z36	X37	Y37	Z37	X38	Y38	Z38	X39	Y39	Z39	X40	Y40	Z40	X41	Y41	Z41	X42	Y42	Z42	X43	Y43	Z43	X44	Y44	Z44	X45	Y45	Z45	X46	Y46	Z46	X47	Y47	Z47	X48	Y48	Z48	X49	Y49	Z49	X50	Y50	Z50	X51	Y51	Z51	

62	0.25417	-1060.9	1308.7	255.84	-1193.9	1555.3	418.81	-1188.8	1564.1	89.396	-1234.1	1874.9	247.86	-1106.4	1055.6	416.32	-1086.3	1044.4	152.9	-1337.3	1086.4	315.4	-1339.3	1086.3	212.04	-1184.2	1006.1	502.46	-1193.8	993.47	73.884	-1198.6	1157.2	473.74	-1193.5	1120.7	70.724	-1351.6	1050.1	261.74	-1077.2	713.48	505.34	-982.8	672.5	492.38	-1040.3	632.88	491.18	-1018.3	756.09	504.52	-1005.4	580.98	491.8	-978.35	580.47	347.46	-1099.5	442.06	494.59	-1053.9	345.3	465.54	-1119.3	374.51	480.15	-1038.3	415.17	485.46	-1164.2	176.48	441.52	-1110.6	174.26	359.36	-1223.6	160.09	368.22	-1206.7	128.35	342.05	-1227.6	128.57	403.32	-1065.2	76.17	501.1	-1005.2	74.27	388.83	-954.32	83.376	456.13	-1227.7	711.37	106.51	-1141.5	640.97	108.84	-1217.2	622.48	125.96	-1162.3	733.07	87.651	-1170	535.42	121.82	-1144.7	542.32	262.69	-1231.1	395.54	110.4	-1172.5	304.91	138.39	-1234.2	317.23	117.59	-1169	380.99	126.52	-1255.1	105.32	163.76	-1230.3	121.76	261.25	-1327	77.827	211.18	-1317.7	54.123	245.08	-1319.2	51.458	183.09	-1106.6	37.685	155.27	-1085.1	51.765	276.61	-1020.2	57.301	227.42	-1286.5	1610.7	252.43	-1360.8	1300.2	269.02
63	0.25833	-1056.1	1308.3	255.6	-1188.8	1555.1	418.82	-1184.4	1563.9	89.389	-1229.4	1874.7	247.86	-1101.3	1055.4	416.28	-1082.2	1044.1	152.71	-1332.6	1086.3	316.02	-1335	1086.3	212.64	-1179.1	1006	502.62	-1190	993.31	74.072	-1193.4	1157.1	473.86	-1189.7	1120.5	70.9	-1347.1	1050	262.37	-1071	713.64	505.03	-976.48	673.17	491.58	-1033.7	633.24	490.49	-1012.4	756.54	504.03	-998.41	581.6	490.96	-971.77	581.34	346.66	-1089.8	440.86	494.43	-1042.3	345.01	465.25	-1108.3	372.88	480.12	-1028.1	415.2	484.94	-1149	173.72	441.96	-1095.8	172.56	359.57	-1208.3	155.72	368.93	-1190.7	124.27	342.81	-1211.4	124.17	404.15	-1047.5	75.998	501.26	-987.82	75.201	388.9	-936.69	85.722	455.95	-1225.4	711.58	106.72	-1139.5	640.65	108.94	-1215.4	622.61	126.14	-1160	732.9	87.739	-1168.6	535.24	121.92	-1143.2	541.99	262.88	-1230.2	395.53	110.55	-1171.8	304.72	138.53	-1233.5	317.23	117.75	-1168.1	380.78	126.63	-1255	105.43	164.02	-1230.2	121.63	261.53	-1326.9	77.864	211.4	-1317.7	54.057	245.24	-1319.2	51.581	183.23	-1106.6	37.727	155.3	-1085	51.516	276.64	-1020.2	57.144	227.47	-1281.6	1610.5	252.63	-1356.1	1300.1	269.47
64	0.2625	-1051.3	1308	255.37	-1183.6	1554.8	418.85	-1180	1563.6	89.391	-1224.8	1874.4	247.88	-1096.3	1055.2	416.24	-1078	1043.8	152.55	-1328	1086.1	316.65	-1330.8	1086.2	213.26	-1173.9	1005.9	502.8	-1186.1	993.13	74.268	-1188.3	1156.9	473.99	-1185.9	1120.3	71.09	-1342.6	1049.9	263	-1064.9	713.74	504.7	-970.23	673.77	490.77	-1027.2	633.54	489.78	-1006.5	756.92	503.54	-991.48	582.16	490.1	-965.25	582.14	345.84	-1080.1	439.66	494.28	-1030.8	344.76	464.95	-1097.3	371.28	480.11	-1018	415.24	484.39	-1133.9	171.07	442.41	-1081	170.96	359.76	-1193	151.49	369.67	-1174.8	120.34	343.58	-1195.2	119.92	405.01	-1029.8	75.969	501.36	-970.61	76.282	388.9	-919.24	88.197	455.68	-1223.1	711.77	106.94	-1137.6	640.32	109.06	-1213.5	622.71	126.33	-1157.7	732.71	87.839	-1167.2	535.04	122.04	-1141.6	541.65	263.1	-1229.2	395.51	110.71	-1171.2	304.53	138.69	-1232.9	317.22	117.93	-1167.2	380.56	126.76	-1254.9	105.53	164.28	-1230.2	121.5	261.82	-1326.8	77.899	211.62	-1317.7	53.984	245.4	-1319.1	51.704	183.36	-1106.5	37.773	155.34	-1085	51.259	276.67	-1020.1	56.987	227.53	-1276.6	1610.3	252.84	-1351.5	1300	269.95
65	0.26667	-1046.5	1307.6	255.16	-1178.4	1554.6	418.88	-1175.5	1563.3	89.404	-1220.1	1874.1	247.93	-1091.3	1054.8	416.22	-1073.8	1043.4	152.4	-1323.3	1085.8	317.27	-1326.5	1086.1	213.88	-1168.9	1005.6	502.99	-1182.3	992.93	74.473	-1183.2	1156.6	474.14	-1182	1120	71.291	-1338.2	1049.7	263.63	-1058.9	713.76	504.36	-964.04	674.29	489.95	-1020.8	633.76	489.05	-1000.7	757.22	503.06	-984.61	582.66	489.21	-958.78	582.87	344.98	-1070.4	438.47	494.14	-1019.4	344.54	464.63	-1086.2	369.73	480.12	-1008	415.28	483.84	-1118.7	168.54	442.87	-1066.4	169.48	359.95	-1177.7	147.4	370.43	-1158.9	116.56	344.37	-1179	115.85	405.9	-1012.2	76.086	501.42	-953.53	77.512	388.83	-901.98	90.802	455.32	-1220.8	711.94	107.16	-1135.6	639.97	109.19	-1211.6	622.8	126.52	-1155.4	732.48	87.952	-1165.7	534.84	122.17	-1140.1	541.31	263.33	-1228.3	395.49	110.88	-1170.5	304.32	138.86	-1232.2	317.21	118.12	-1166.3	380.34	126.9	-1254.8	105.64	164.56	-1230.1	121.36	262.13	-1326.8	77.931	211.84	-1317.6	53.905	245.56	-1319	51.828	183.51	-1106.5	37.823	155.37	-1084.9	50.994	276.72	-1020	56.833	227.58	-1271.7	1610.1	253.07	-1346.8	1299.8	270.45
66	0.27083	-1041.7	1307.1	254.97	-1173.2	1554.2	418.93	-1171.1	1562.9	89.427	-1215.4	1873.8	247.99	-1086.3	1054.5	416.21	-1069.6	1043.1	152.26	-1318.6	1085.6	317.91	-1322.3	1086	214.51	-1163.8	1005.3	503.18	-1178.4	992.72	74.685	-1178	1156.3	474.31	-1178.2	1119.8	71.501	-1333.7	1049.6	264.26	-1052.9	713.72	504.01	-957.92	674.73	489.12	-1014.4	633.92	488.31	-994.91	757.44	502.57	-977.8	583.1	488.29	-952.37	583.54	344.1	-1060.7	437.27	494	-1008	344.36	464.3	-1075.2	368.22	480.15	-997.98	415.33	483.27	-1103.6	166.13	443.34	-1051.7	168.11	360.13	-1162.5	143.44	371.23	-1143.1	112.95	345.18	-1162.8	111.94	406.81	-994.62	76.354	501.43	-936.59	78.888	388.7	-884.91	93.536	454.89	-1218.5	712.09	107.39	-1133.6	639.6	109.34	-1209.7	622.87	126.71	-1153.1	732.24	88.076	-1164.3	534.62	122.32	-1138.5	540.96	263.58	-1227.3	395.46	111.06	-1169.9	304.11	139.04	-1231.5	317.2	118.32	-1165.4	380.1	127.06	-1254.7	105.74	164.85	-1230	121.22	262.43	-1326.7	77.962	212.07	-1317.6	53.821	245.73	-1319	51.95	183.65	-1106.5	37.875	155.4	-1084.9	50.725	276.78	-1019.9	56.681	227.64	-1266.8	1609.8	253.32	-1342.1	1299.6	270.97
67	0.275	-1036.9	1306.7	254.79	-1168	1553.8	418.98	-1166.7	1562.5	89.463	-1210.6	1873.4	248.07	-1081.4	1054.1	416.21	-1065.5	1042.7	152.15	-1314	1085.3	318.54	-1318	1085.9	215.14	-1158.7	1005	503.37	-1174.6	992.5	74.902	-1172.9	1155.9	474.5	-1174.4	1119.5	71.716	-1329.2	1049.3	264.89	-1046.9	713.61	503.64	-951.87	675.09	488.28	-1008.2	634.01	487.55	-989.2	757.59	502.09	-971.06	583.47	487.37	-946.02	584.15	343.2	-1051.1	436.09	493.88	-996.69	344.22	463.95	-1064.2	366.75	480.2	-988.04	415.39	482.7	-1088.5	163.85	443.81	-1037.2	166.85	360.3	-1147.2	139.63	372.04	-1127.2	109.49	346	-1146.6	108.19	407.74	-977.15	76.776	501.41	-919.8	80.407	388.52	-868.03	96.397	454.38	-1216.2	712.22	107.61	-1131.5	639.22	109.5	-1207.7	622.93	126.92	-1150.6	731.96	88.211	-1162.8	534.4	122.47	-1136.9	540.6	263.84	-1226.4	395.42	111.26	-1169.2	303.89	139.23	-1230.8	317.18	118.53	-1164.5	379.86	127.22	-1254.6	105.85	165.14	-1230	121.07	262.75	-1326.7	77.991	212.3	-1317.5	53.734	245.89	-1318.9	52.072	183.8	-1106.5	37.929	155.43	-1084.8	50.452	276.84	-1019.9	56.532	227.7	-1261.9	1609.5	253.58	-1337.5	1299.4	271.51
